<svg xmlns="http://www.w3.org/2000/svg" width="202" height="47" preserveAspectRatio="xMidYMid slice" viewBox="0 0 202 47">
    <g fill="none" fill-rule="evenodd">
        <path fill="#41426F" d="M19.576 21.412a1.96 1.96 0 1 0-3.92 0 1.96 1.96 0 0 0 3.92 0M8.021 41.405a.741.741 0 1 0 0 1.483.741.741 0 0 0 0-1.483m20.961 1.648a.91.91 0 1 0 0 1.818.91.91 0 0 0 0-1.818M20.939 15.71a1.918 1.918 0 1 0 0 3.836 1.918 1.918 0 0 0 0-3.836m4.89 5.397a1.876 1.876 0 1 0 0-3.753 1.876 1.876 0 0 0 0 3.753m3.308.457a1.834 1.834 0 1 0 0 3.669 1.834 1.834 0 0 0 0-3.669m-.209 5.39a1.792 1.792 0 1 0 .002 3.585 1.792 1.792 0 0 0-.002-3.585m-2.904 4.062a1.75 1.75 0 1 0 0 3.5 1.75 1.75 0 0 0 0-3.5m-5.085 1.746a1.708 1.708 0 1 0 0 3.415 1.708 1.708 0 0 0 0-3.415m-5.034-.888a1.666 1.666 0 1 0 0 3.333 1.666 1.666 0 0 0 0-3.333m-2.586-.877a1.624 1.624 0 1 0-3.248 0 1.624 1.624 0 0 0 3.248 0M8.56 25.48a1.582 1.582 0 1 0 0 3.165 1.582 1.582 0 0 0 0-3.165m.005-3.159a1.54 1.54 0 1 0-3.08 0 1.54 1.54 0 0 0 3.08 0m-1.337-3.427a1.498 1.498 0 1 0 0-2.997 1.498 1.498 0 0 0 0 2.997m1.892-4.588a1.456 1.456 0 1 0-.001-2.913 1.456 1.456 0 0 0 0 2.913m3.635-6.697a1.413 1.413 0 1 0 0 2.827 1.413 1.413 0 0 0 0-2.827m4.89.543a1.372 1.372 0 1 0 0-2.744 1.372 1.372 0 0 0 0 2.744m5.163-.341a1.33 1.33 0 1 0 0-2.66 1.33 1.33 0 0 0 0 2.66m4.998 1.107a1.289 1.289 0 1 0-.002-2.577 1.289 1.289 0 0 0 .002 2.577m5.69 1.058a1.246 1.246 0 1 0-2.49 0 1.246 1.246 0 0 0 2.49 0m3.576 3.287a1.204 1.204 0 1 0-2.407 0 1.204 1.204 0 0 0 2.407 0M38.61 18.6a1.161 1.161 0 1 0 0-2.322 1.161 1.161 0 0 0 0 2.322m.48 3.6a1.12 1.12 0 1 0 2.238 0 1.12 1.12 0 0 0-2.239 0m1.438 4.234a1.077 1.077 0 1 0 0 2.155 1.077 1.077 0 0 0 0-2.155m-1.099 5.215a1.036 1.036 0 1 0 0 2.072 1.036 1.036 0 0 0 0-2.072m-2.355 4.602a.993.993 0 1 0 0 1.986.993.993 0 0 0 0-1.986m-3.606 3.964a.951.951 0 1 0 0 1.903.951.951 0 0 0 0-1.903m-9.61 4.38a.868.868 0 1 0 .002 1.736.868.868 0 0 0-.002-1.735m-5.248.169a.825.825 0 1 0 0 1.65.825.825 0 0 0 0-1.65m-4.88-.36a.783.783 0 1 1-1.566 0 .783.783 0 0 1 1.567 0"/>
        <path fill="#1B65D3" d="M24.334 23.146a1.96 1.96 0 1 0 0 3.921 1.96 1.96 0 0 0 0-3.92m9.572-18.058a.741.741 0 1 0 0-1.483.741.741 0 0 0 0 1.483M12.945 3.44a.91.91 0 1 0 0-1.82.91.91 0 0 0 0 1.82m8.043 23.506a1.918 1.918 0 1 0 0 3.836 1.918 1.918 0 0 0 0-3.836m-4.89-1.56a1.876 1.876 0 1 0 0 3.752 1.876 1.876 0 0 0 0-3.752m-1.474-2.291a1.834 1.834 0 1 0-3.668 0 1.834 1.834 0 0 0 3.668 0m-1.626-3.556a1.792 1.792 0 1 0 0-3.584 1.792 1.792 0 0 0 0 3.584m2.905-4.062a1.75 1.75 0 1 0 0-3.5 1.75 1.75 0 0 0 0 3.5m5.085-1.747a1.708 1.708 0 1 0 0-3.415 1.708 1.708 0 0 0 0 3.415m5.034-2.444a1.666 1.666 0 1 0 0 3.332 1.666 1.666 0 0 0 0-3.332m2.586 4.21a1.624 1.624 0 1 0 3.248 0 1.624 1.624 0 0 0-3.248 0m4.758 5.517a1.582 1.582 0 1 0-.001-3.165 1.582 1.582 0 0 0 0 3.165m-.004 3.16a1.54 1.54 0 1 0 3.08 0 1.54 1.54 0 0 0-3.08 0m1.337 3.426a1.498 1.498 0 1 0 0 2.996 1.498 1.498 0 0 0 0-2.996m-1.892 4.589a1.456 1.456 0 1 0 .001 2.912 1.456 1.456 0 0 0 0-2.912m-3.635 3.869a1.414 1.414 0 1 0 0 2.827 1.414 1.414 0 0 0 0-2.827m-4.891 2.284a1.372 1.372 0 1 0 0 2.744 1.372 1.372 0 0 0 0-2.744m-5.163.342a1.33 1.33 0 1 0 0 2.659 1.33 1.33 0 0 0 0-2.66m-4.997-1.107a1.288 1.288 0 1 0 .001 2.576 1.288 1.288 0 0 0 0-2.576m-4.446-2.303a1.245 1.245 0 1 0-.001 2.49 1.245 1.245 0 0 0 0-2.49m-3.617-3.246a1.204 1.204 0 1 0 0 2.408 1.204 1.204 0 0 0 0-2.408m-2.741-4.134a1.162 1.162 0 1 0 0 2.323 1.162 1.162 0 0 0 0-2.323m-.48-3.6a1.12 1.12 0 1 0-2.24.001 1.12 1.12 0 0 0 2.24 0M1.4 20.059a1.077 1.077 0 1 0 0-2.154 1.077 1.077 0 0 0 0 2.154m1.1-5.215a1.036 1.036 0 1 0 0-2.07 1.036 1.036 0 0 0 0 2.07M5.846 9.25a.993.993 0 1 0-1.987 0 .993.993 0 0 0 1.987 0m3.564-3.923a.951.951 0 1 0-1.902 0 .951.951 0 0 0 1.902 0m8.658-3.43a.868.868 0 1 0 0-1.734.868.868 0 0 0 0 1.735m5.249-.17a.826.826 0 1 0 0-1.65.826.826 0 0 0 0 1.65m4.879.36a.783.783 0 1 1 1.567.001.783.783 0 0 1-1.567 0"/>
        <g fill="#41426F">
            <path d="M196.332 24.337l-.952-.746.785-.616 4.367-5.619h-1.792l-4.386 5.824-.84.261v-6.085h-1.55v13.066h1.55v-6.048h.877l4.76 6.048h1.96l-4.779-6.085zm-12.777-.27a9.331 9.331 0 0 0-1.521-.869 22.68 22.68 0 0 1-1.521-.755 4.784 4.784 0 0 1-1.167-.868c-.311-.324-.467-.728-.467-1.213 0-.498.206-.93.617-1.298.41-.367 1.026-.55 1.847-.55.697 0 1.323.064 1.876.192.554.128.974.264 1.26.405l.467-1.382c-.349-.174-.834-.317-1.456-.43a11.752 11.752 0 0 0-2.072-.167c-1.306 0-2.314.299-3.024.897-.709.596-1.064 1.406-1.064 2.426 0 .721.156 1.315.467 1.782.311.467.7.859 1.166 1.177a8.24 8.24 0 0 0 1.522.81c.547.225 1.054.465 1.521.72.467.255.855.547 1.167.877.31.33.466.756.466 1.278 0 .374-.078.698-.233.971a2.044 2.044 0 0 1-.625.682 2.64 2.64 0 0 1-.934.391 5.277 5.277 0 0 1-1.157.122 7.224 7.224 0 0 1-1.885-.227c-.56-.152-.983-.306-1.27-.464l-.522 1.382c.336.174.809.333 1.418.475.61.143 1.382.215 2.315.215.697 0 1.319-.087 1.866-.261a4.064 4.064 0 0 0 1.4-.747c.386-.323.679-.71.878-1.157.2-.448.299-.952.299-1.512 0-.684-.156-1.257-.467-1.717-.311-.46-.7-.856-1.167-1.185zm-18.294.326h5.095v-1.381h-5.095v-4.274h5.561v-1.382h-7.11v13.066h7.204v-1.381h-5.655v-4.648zm-8.699-.597c0-.61-.069-1.223-.206-1.839a4.819 4.819 0 0 0-.709-1.67 3.9 3.9 0 0 0-1.353-1.223c-.566-.317-1.279-.476-2.137-.476h-.532c-.193 0-.383.006-.57.019-.186.012-.357.025-.513.037a6.425 6.425 0 0 0-.364.037v10.453c.062.013.18.022.355.028l.541.019.541.018c.175.007.293.01.355.01.87 0 1.602-.15 2.193-.448.591-.299 1.064-.7 1.419-1.204a4.885 4.885 0 0 0 .756-1.736c.15-.653.224-1.328.224-2.025zm1.278-2.67c.243.81.365 1.7.365 2.67 0 .883-.116 1.733-.346 2.548a6.148 6.148 0 0 1-1.092 2.165c-.497.628-1.144 1.132-1.94 1.512-.797.38-1.762.57-2.894.57-.2 0-.458-.004-.775-.01a27.5 27.5 0 0 1-.98-.038 75.684 75.684 0 0 0-.933-.046 4.637 4.637 0 0 1-.616-.056V17.356c.236-.037.5-.065.793-.084.292-.018.598-.03.915-.037l.933-.019c.305-.006.588-.01.85-.01 1.044 0 1.95.163 2.715.486.766.324 1.397.775 1.895 1.353.497.58.868 1.273 1.11 2.082zm-20.21 3.034l-.573 1.477h-.037l-.61-1.44-4.044-6.613h-1.146v12.93h1.441v-8.7l-.258-1.921h.092l.665 1.755 3.565 5.855h.46l3.363-5.837.701-1.773h.093l-.185 1.94v8.68h1.533V17.584h-1.2l-3.86 6.576zm-17.372-6.778l-4.894 13.131h1.533l.772-2.15.016-.044.499-1.389h.008l.908-2.488.995-2.74.459-1.994h.018l.46 1.958 1.434 3.934h-.006l.987 2.746.8 2.167h1.626l-4.913-13.131h-.702zm-15.468 7.165h5.042v-1.366h-5.042v-4.23h5.504v-1.367h-7.037v12.93h7.129v-1.367h-5.596v-4.6zm-11.073-1.533c.554-.419.83-1.071.83-1.958 0-.665-.227-1.213-.682-1.643-.456-.43-1.09-.647-1.903-.647h-.498c-.173 0-.339.006-.5.019-.16.012-.31.024-.452.037-.141.012-.255.03-.342.055v4.765h1.441c.85 0 1.551-.21 2.106-.628zm.406 2.383l3.214 5.116h-1.792l-3.564-5.578-1.81-.277v5.855h-1.533v-12.8a16.353 16.353 0 0 1 1.615-.203c.61-.049 1.167-.073 1.672-.073.567 0 1.105.061 1.616.184.511.123.96.326 1.349.61.387.283.699.653.932 1.108.234.455.351 1.01.351 1.662 0 1.01-.277 1.829-.831 2.457-.554.628-1.256 1.046-2.106 1.255l.887.684zM73.519 18.95h4.027v11.562h1.533V18.951h4.026v-1.367H73.52v1.367zm-5.29 6.446c.307.455.46 1.022.46 1.7 0 .553-.098 1.052-.295 1.496a3.152 3.152 0 0 1-.868 1.144c-.382.32-.843.567-1.385.74-.542.172-1.158.257-1.848.257-.923 0-1.686-.07-2.29-.211-.603-.143-1.07-.3-1.403-.472l.517-1.367c.283.157.702.308 1.256.46a7.1 7.1 0 0 0 1.865.223c.407 0 .788-.04 1.145-.12.358-.08.665-.209.924-.387.259-.179.465-.403.619-.675.153-.27.23-.59.23-.959 0-.518-.153-.94-.461-1.266a4.594 4.594 0 0 0-1.155-.867c-.462-.253-.963-.49-1.505-.712a8.146 8.146 0 0 1-1.505-.804 4.238 4.238 0 0 1-1.155-1.163c-.307-.461-.461-1.05-.461-1.764 0-1.01.35-1.81 1.052-2.4.702-.592 1.7-.887 2.992-.887.752 0 1.435.055 2.05.166.616.111 1.097.252 1.441.425l-.461 1.367c-.283-.14-.7-.274-1.247-.4a8.314 8.314 0 0 0-1.856-.191c-.813 0-1.422.181-1.829.545-.406.363-.61.79-.61 1.283 0 .48.155.88.463 1.2.307.321.692.607 1.154.86.462.252.963.501 1.505.747a9.19 9.19 0 0 1 1.505.86c.462.325.847.716 1.155 1.172z"/>
        </g>
    </g>
</svg>
